<?xml version="1.0" encoding="UTF-8"?>
<svg version="1.1" xmlns="http://www.w3.org/2000/svg" width="500" height="500">
<path d="M0 0 C5.15810966 2.87855797 7.87871325 6.93833082 10.625 12.0625 C10.99625 11.010625 11.3675 9.95875 11.75 8.875 C13.54867564 4.6523948 15.9030158 2.69890548 19.625 0.0625 C22.92234646 -1.03661549 25.35458745 -1.0514456 28.82421875 -1.03515625 C30.03271484 -1.03193359 31.24121094 -1.02871094 32.48632812 -1.02539062 C34.3802832 -1.01282227 34.3802832 -1.01282227 36.3125 -1 C38.22385742 -0.99323242 38.22385742 -0.99323242 40.17382812 -0.98632812 C43.3242387 -0.97452883 46.47462519 -0.95659318 49.625 -0.9375 C49.625 3.0225 49.625 6.9825 49.625 11.0625 C38.24 11.5575 38.24 11.5575 26.625 12.0625 C26.625 13.3825 26.625 14.7025 26.625 16.0625 C27.3984375 16.03929687 28.171875 16.01609375 28.96875 15.9921875 C36.86720895 15.85533301 43.05152082 15.94488271 50 20.0625 C53.56404283 24.1356918 54.50217842 27.69110282 54.625 33.0625 C53.90151459 37.74483253 52.14778897 40.91682767 48.5625 44 C44.16079018 47.09056222 42.03777532 47.18206413 36.6484375 47.16015625 C35.62056625 47.15803383 35.62056625 47.15803383 34.57192993 47.15586853 C32.38124239 47.15026675 30.1906567 47.13771406 28 47.125 C26.51562648 47.11998522 25.03125135 47.11542228 23.546875 47.11132812 C19.90621685 47.10029677 16.26561836 47.08303099 12.625 47.0625 C12.625 43.1025 12.625 39.1425 12.625 35.0625 C25 34.5675 25 34.5675 37.625 34.0625 C37.955 32.7425 38.285 31.4225 38.625 30.0625 C37.79097656 30.09730469 36.95695312 30.13210937 36.09765625 30.16796875 C27.91551599 30.36478999 20.52380325 30.39074668 14.0625 24.875 C13.588125 24.276875 13.11375 23.67875 12.625 23.0625 C12.13 25.5375 12.13 25.5375 11.625 28.0625 C1.395 28.0625 -8.835 28.0625 -19.375 28.0625 C-19.045 29.3825 -18.715 30.7025 -18.375 32.0625 C-12.8407926 33.88990271 -7.74515175 34.46286883 -1.9375 34.6875 C-1.11056641 34.72617187 -0.28363281 34.76484375 0.56835938 34.8046875 C2.58691073 34.89803092 4.60592331 34.98130961 6.625 35.0625 C6.625 39.0225 6.625 42.9825 6.625 47.0625 C2.99917333 47.17145639 -0.62330995 47.25027738 -4.25 47.3125 C-5.26320313 47.34601563 -6.27640625 47.37953125 -7.3203125 47.4140625 C-15.41346822 47.51782091 -22.41540112 46.31140165 -28.8125 41.0625 C-29.328125 40.4025 -29.84375 39.7425 -30.375 39.0625 C-30.91125 38.4025 -31.4475 37.7425 -32 37.0625 C-36.24875664 30.88249035 -36.81545185 24.86682606 -35.8125 17.5625 C-34.4511544 11.05328463 -31.61561225 6.51899435 -26.30859375 2.49609375 C-18.15638823 -2.77356396 -9.0891147 -4.01355444 0 0 Z M-18.375 13.0625 C-19.035 14.7125 -19.695 16.3625 -20.375 18.0625 C-14.765 18.0625 -9.155 18.0625 -3.375 18.0625 C-5.41338621 12.96653447 -5.76170581 12.25381474 -10.375 10.0625 C-13.59569545 10.0625 -15.65553977 11.41949278 -18.375 13.0625 Z " fill="#FEFEFE" transform="translate(309.375,222.9375)"/>
<path d="M0 0 C5.28 0 10.56 0 16 0 C16.04980923 6.06484815 16.08591175 12.12957458 16.10986328 18.19458008 C16.11985892 20.25352048 16.13345992 22.31244691 16.15087891 24.37133789 C16.17541262 27.3478543 16.18654775 30.32418141 16.1953125 33.30078125 C16.20563507 34.2064534 16.21595764 35.11212555 16.22659302 36.04524231 C16.22823823 45.6301718 15.61394625 55.53811193 9 63 C3.12239431 68.45976643 -4.19341143 69.63450546 -12 70 C-19.90105668 69.4689276 -25.17654454 66.95477897 -30.6875 61.1875 C-36.57965625 53.06587923 -36.97148344 45.9631024 -36 36 C-34.06314363 29.13769707 -29.47289792 24.25912592 -23.375 20.6875 C-18.37506555 18.35798509 -13.41015261 18.29074219 -8 19 C-3.02857143 20.97142857 -3.02857143 20.97142857 -1 23 C-0.67 15.41 -0.34 7.82 0 0 Z M-19 36 C-21.57382438 39.75349388 -21.15209787 43.49688283 -20.55078125 47.84375 C-19.75992116 50.93988313 -18.26950283 52.79926998 -16 55 C-12.78070427 56.60964787 -9.48112288 56.60686242 -6 56 C-2.78045355 53.46546343 -1.29567565 51.88702695 0 48 C0.38971703 43.24545226 0.4608337 40.92166739 -1.6875 36.625 C-4.10142885 33.88486455 -5.5021949 32.8968731 -9 32 C-13.05036667 32 -15.8300974 33.63230862 -19 36 Z " fill="#FEFEFE" transform="translate(257,202)"/>
<path d="M0 0 C4.95 0 9.9 0 15 0 C15.01417969 2.10761719 15.02835938 4.21523437 15.04296875 6.38671875 C15.07362588 8.43888107 15.11270425 10.4907233 15.15258789 12.54272461 C15.17571503 13.96350702 15.19015126 15.38445958 15.19555664 16.80541992 C15.20488661 18.85442466 15.24595166 20.9007735 15.29296875 22.94921875 C15.31653442 24.79519653 15.31653442 24.79519653 15.34057617 26.6784668 C16.17370739 30.87496818 17.68163765 32.37940267 21 35 C24.50412619 35.57210224 26.22404484 35.44040698 29.3125 33.6875 C32.55606366 30.44393634 32.18337568 26.71528134 32.31640625 22.36328125 C32.37924805 20.41518555 32.37924805 20.41518555 32.44335938 18.42773438 C32.48316987 17.05599239 32.52288216 15.68424756 32.5625 14.3125 C32.60570835 12.92902355 32.64932339 11.54555973 32.69335938 10.16210938 C32.79957965 6.77486286 32.90030688 3.38744491 33 0 C37.95 0 42.9 0 48 0 C48.09231606 4.55425881 48.17179505 9.1052156 48.21972656 13.65966797 C48.23972503 15.20567887 48.26693331 16.75161527 48.30175781 18.29736328 C48.67898976 35.48360715 48.67898976 35.48360715 42.25390625 43.05859375 C41.69574219 43.51363281 41.13757813 43.96867187 40.5625 44.4375 C40.00691406 44.91058594 39.45132813 45.38367188 38.87890625 45.87109375 C37 47 37 47 32 48 C32 54.27 32 60.54 32 67 C26.72 67 21.44 67 16 67 C16 60.73 16 54.46 16 48 C14.35 47.67 12.7 47.34 11 47 C8.8671875 45.6171875 8.8671875 45.6171875 6.875 43.875 C6.21242188 43.31554687 5.54984375 42.75609375 4.8671875 42.1796875 C0.43762381 37.00877424 -0.44266604 31.72703127 -0.29296875 25.09765625 C-0.28872391 24.3750914 -0.28447906 23.65252655 -0.28010559 22.9080658 C-0.26346418 20.62581307 -0.22584248 18.34448067 -0.1875 16.0625 C-0.17243423 14.50457015 -0.15874916 12.9466263 -0.14648438 11.38867188 C-0.1161742 7.59181789 -0.05743248 3.79692516 0 0 Z " fill="#FEFEFE" transform="translate(120,222)"/>
<path d="M0 0 C4.91644636 3.07277897 9.44058744 7.34843226 10.78125 13.11328125 C11.82461731 20.65360597 11.90377242 28.13851935 11.84375 35.73828125 C11.83923828 36.83785156 11.83472656 37.93742187 11.83007812 39.0703125 C11.81842154 41.75132615 11.80049141 44.43231131 11.78125 47.11328125 C6.50125 47.11328125 1.22125 47.11328125 -4.21875 47.11328125 C-4.25613281 44.9940625 -4.29351562 42.87484375 -4.33203125 40.69140625 C-4.37827971 38.63270917 -4.42950093 36.57419153 -4.48120117 34.515625 C-4.51439794 33.08800211 -4.54244631 31.66024962 -4.56518555 30.23242188 C-4.59883013 28.1765231 -4.65114562 26.12180613 -4.70703125 24.06640625 C-4.73321533 22.83051758 -4.75939941 21.59462891 -4.78637695 20.32128906 C-5.2448814 16.91939834 -5.79705012 15.50017525 -8.21875 13.11328125 C-11.90986926 11.90965541 -13.51473951 11.76909834 -17.03125 13.48828125 C-19.08681083 14.93268846 -19.08681083 14.93268846 -20.21875 16.11328125 C-20.37763092 18.40316906 -20.47013073 20.69771566 -20.53515625 22.9921875 C-20.55593735 23.67884995 -20.57671844 24.36551239 -20.59812927 25.07298279 C-20.66369143 27.2738106 -20.72254015 29.474761 -20.78125 31.67578125 C-20.82442892 33.16472639 -20.868043 34.65365898 -20.91210938 36.14257812 C-21.0202015 39.79935517 -21.11922374 43.45622072 -21.21875 47.11328125 C-26.49875 47.11328125 -31.77875 47.11328125 -37.21875 47.11328125 C-37.28822789 43.16590785 -37.34776982 39.22012396 -37.38354492 35.27246094 C-37.40576479 33.2817522 -37.44391595 31.29124157 -37.48242188 29.30078125 C-37.54730639 20.73602471 -37.59318135 12.48397328 -32.16796875 5.45703125 C-31.42160156 4.84859375 -30.67523438 4.24015625 -29.90625 3.61328125 C-28.79830078 2.6696875 -28.79830078 2.6696875 -27.66796875 1.70703125 C-19.90245019 -3.34612915 -8.45690487 -3.78052315 0 0 Z " fill="#FEFEFE" transform="translate(208.21875,222.88671875)"/>
<path d="M0 0 C1.20849609 0.00322266 2.41699219 0.00644531 3.66210938 0.00976562 C4.92474609 0.01814453 6.18738281 0.02652344 7.48828125 0.03515625 C9.39963867 0.04192383 9.39963867 0.04192383 11.34960938 0.04882812 C14.50001995 0.06062742 17.65040644 0.07856307 20.80078125 0.09765625 C20.80078125 4.05765625 20.80078125 8.01765625 20.80078125 12.09765625 C13.21078125 12.42765625 5.62078125 12.75765625 -2.19921875 13.09765625 C-2.19921875 14.41765625 -2.19921875 15.73765625 -2.19921875 17.09765625 C-1.42578125 17.07445312 -0.65234375 17.05125 0.14453125 17.02734375 C8.0429902 16.89048926 14.22730207 16.98003896 21.17578125 21.09765625 C24.73982408 25.17084805 25.67795967 28.72625907 25.80078125 34.09765625 C25.07729584 38.77998878 23.32357022 41.95198392 19.73828125 45.03515625 C15.33657143 48.12571847 13.21355657 48.21722038 7.82421875 48.1953125 C7.13897125 48.19389755 6.45372375 48.1924826 5.74771118 48.19102478 C3.55702364 48.185423 1.36643795 48.17287031 -0.82421875 48.16015625 C-2.30859227 48.15514147 -3.7929674 48.15057853 -5.27734375 48.14648438 C-8.9180019 48.13545302 -12.55860039 48.11818724 -16.19921875 48.09765625 C-16.19921875 44.13765625 -16.19921875 40.17765625 -16.19921875 36.09765625 C-3.82421875 35.60265625 -3.82421875 35.60265625 8.80078125 35.09765625 C9.13078125 33.77765625 9.46078125 32.45765625 9.80078125 31.09765625 C8.4240625 31.14986328 8.4240625 31.14986328 7.01953125 31.203125 C-8.34478513 31.54204374 -8.34478513 31.54204374 -15.13671875 25.47265625 C-17.70847465 21.26432842 -18.4817006 18.00256836 -18.19921875 13.09765625 C-16.53100772 7.2098526 -14.03818535 4.52525759 -9.19921875 1.09765625 C-5.90187229 -0.00145924 -3.4696313 -0.01628935 0 0 Z " fill="#FEFEFE" transform="translate(93.19921875,221.90234375)"/>
<path d="M0 0 C1.88428711 0.02707031 1.88428711 0.02707031 3.80664062 0.0546875 C6.89225705 0.10161703 9.9774787 0.17335351 13.0625 0.25 C13.0625 4.21 13.0625 8.17 13.0625 12.25 C5.4725 12.58 -2.1175 12.91 -9.9375 13.25 C-9.9375 14.57 -9.9375 15.89 -9.9375 17.25 C-9.10347656 17.21519531 -8.26945312 17.18039063 -7.41015625 17.14453125 C0.69394916 16.94958713 7.87433771 17.0283367 14.5 22.125 C17.86639122 26.70329206 18.63822747 30.58867989 18.0625 36.25 C16.46970877 41.34311686 14.40048221 44.86752903 9.53491211 47.47583008 C3.67115754 49.31190846 -2.7847332 48.64561143 -8.875 48.5 C-10.33656415 48.47990977 -11.79815486 48.46166344 -13.25976562 48.4453125 C-16.81956774 48.40150336 -20.37836254 48.33261546 -23.9375 48.25 C-23.6075 44.29 -23.2775 40.33 -22.9375 36.25 C-14.6875 36.25 -6.4375 36.25 2.0625 36.25 C2.0625 34.93 2.0625 33.61 2.0625 32.25 C0.83273437 32.15203125 -0.39703125 32.0540625 -1.6640625 31.953125 C-3.29695712 31.80297377 -4.92976548 31.65188228 -6.5625 31.5 C-7.77486328 31.4071875 -7.77486328 31.4071875 -9.01171875 31.3125 C-15.30721299 30.69830544 -19.25945749 28.97899893 -23.78515625 24.3671875 C-26.14711421 20.02759017 -25.50084953 15.02566758 -24.9375 10.25 C-22.98263286 5.87109761 -20.48338173 3.40151755 -16.28491211 1.0703125 C-11.09098786 -0.74472499 -5.4282066 -0.14801612 0 0 Z " fill="#FEFEFE" transform="translate(406.9375,221.75)"/>
<path d="M0 0 C4.95 0 9.9 0 15 0 C15 15.84 15 31.68 15 48 C10.05 48 5.1 48 0 48 C0 32.16 0 16.32 0 0 Z " fill="#FEFEFE" transform="translate(365,222)"/>
<path d="M0 0 C3.5 0.625 3.5 0.625 6.4375 2.625 C9.29117716 6.77580314 9.2099846 8.6551078 8.5 13.625 C6.59496794 16.37671298 5.2143524 17.34301879 2.125 18.5625 C-1.45856067 18.64782287 -3.4857088 17.50055897 -6.5 15.625 C-9.00031654 11.87452518 -9.03603554 10.06643734 -8.5 5.625 C-5.90783917 1.93313458 -4.45850936 0.79616239 0 0 Z " fill="#FDFDFD" transform="translate(372.5,199.375)"/>
</svg>
