<svg xmlns="http://www.w3.org/2000/svg" width="351" height="372" viewBox="0 0 351 372" fill="none"><path d="M336.66 235.335L330.66 218.335C330.66 218.335 355.66 180.335 293.66 167.335C293.66 167.335 297.66 120.335 275.66 98.3354C323.66 51.3354 312.66 -19.6645 203.66 26.3355C147.66 -80.6645 -68.3396 170.335 21.6604 210.335C12.6604 222.335 12.6604 282.335 74.6604 288.335C116.66 378.335 218.66 384.335 277.66 357.335C336.66 330.335 370.66 244.335 336.66 235.335ZM73.6604 275.335C22.6604 270.335 17.6604 200.335 61.6604 193.335C105.66 186.335 116.66 279.335 73.6604 275.335ZM58.6604 180.335C44.6604 180.335 27.6604 199.335 27.6604 199.335C-40.3396 166.335 150.66 -52.6646 191.66 32.3354C191.66 32.3354 91.6604 80.3354 58.6604 180.335ZM258.66 265.335C258.66 261.335 237.66 271.335 199.66 258.335C202.66 237.335 247.66 276.335 322.66 225.335L328.66 246.335C356.66 241.335 328.66 336.335 238.66 335.335C165.66 334.335 142.66 259.335 182.66 218.335C190.66 210.335 153.66 194.335 160.66 159.335C163.66 144.335 176.66 122.335 209.66 128.335C242.66 134.335 249.66 104.335 271.66 115.335C293.66 126.335 280.66 168.335 283.66 174.335C286.66 180.335 318.66 181.335 324.66 198.335C330.66 215.335 283.66 252.335 210.66 242.335C193.66 240.335 183.66 262.335 194.66 276.335C216.66 308.335 306.66 287.335 321.66 256.335C283.66 285.335 205.66 296.335 199.66 265.335C221.66 275.335 258.66 269.335 258.66 265.335ZM127.66 107.335C149.66 80.3354 178.66 64.3354 178.66 64.3354L172.66 79.3354C172.66 79.3354 193.66 63.3354 216.66 63.3354L208.66 71.3354C234.66 72.3354 245.66 82.3354 245.66 82.3354C245.66 82.3354 184.66 64.3354 127.66 107.335ZM262.66 146.335C275.66 145.335 271.66 175.335 271.66 175.335H263.66C263.66 175.335 249.66 147.335 262.66 146.335ZM203.66 179.335C194.66 180.335 184.66 185.335 185.66 181.335C189.66 165.335 226.66 169.335 225.66 183.335C224.66 197.335 216.66 177.335 203.66 179.335ZM224.66 191.335C225.66 193.335 217.66 191.335 211.66 192.335C205.66 193.335 199.66 196.335 199.66 194.335C199.66 192.335 222.66 183.335 224.66 191.335ZM244.66 194.335C247.66 188.335 259.66 194.335 256.66 200.335C253.66 206.335 241.66 200.335 244.66 194.335ZM269.66 196.335C263.66 196.335 263.66 183.335 269.66 183.335C275.66 183.335 275.66 197.335 269.66 197.335V196.335ZM89.6604 249.335C92.6604 252.335 83.6604 258.335 76.6604 253.335C69.6604 248.335 84.6604 224.335 66.6604 218.335C48.6604 212.335 53.6604 235.335 48.6604 232.335C43.6604 229.335 55.6604 197.335 76.6604 210.335C97.6604 223.335 70.6604 243.335 82.6604 249.335C94.6604 255.335 87.6604 247.335 89.6604 249.335Z" fill="#212529"></path></svg>