<svg width="24" height="24" viewBox="0 0 24 24" fill="none" xmlns="http://www.w3.org/2000/svg">
<path d="M3 8.684L12 3V9.632L3 15.316V8.684Z" fill="#07313B"/>
<path d="M3 8.684L12 3V9.632L3 15.316V8.684Z" fill="#07313B"/>
<path d="M3 15.3161L12 21.0001V14.3701L3 8.68506V15.3161Z" fill="#07313B"/>
<path d="M3 15.316L12 21V14.37L3 8.685V15.316ZM12 8.684L21 3V9.632L12 15.316V8.684Z" fill="#07313B"/>
<path d="M12 8.684L21 3V9.632L12 15.316V8.684Z" fill="#07313B"/>
<path d="M12 15.316L21 21V14.37L12 8.68604V15.317V15.316Z" fill="#07313B"/>
<path d="M12 15.316L21 21V14.37L12 8.68604V15.317V15.316Z" fill="#07313B"/>
</svg>
