<svg width="179" height="44" viewBox="0 0 179 44" fill="none" xmlns="http://www.w3.org/2000/svg">
<g clip-path="url(#clip0_2151_105)">
<path d="M25.8 33.787C22.3 32.487 18.7 32.287 15.4 33.187C13.1 33.787 10.9 34.987 8.9 36.487L7.5 37.687L7.1 38.087L8 38.887C8.1 38.887 8.1 38.987 8.2 39.087C8.4 39.287 8.6 39.387 8.9 39.587L9.5 39.987L10.1 39.487C10.2 39.387 10.4 39.187 10.6 39.087C12.4 37.587 14.4 36.587 16.5 36.087C19.2 35.387 22.1 35.487 25 36.587C27.4 37.487 32.3 38.587 38.2 36.087L38.4 35.987L38.7 35.687C38.7 35.587 38.8 35.587 38.9 35.487C39.4 34.887 39.9 34.287 40.3 33.587L42.3 30.487L39.1 32.287C34.4 34.887 30.1 35.387 25.8 33.787ZM12.1 22.988C14.8 22.288 17.7 22.388 20.6 23.488C23.8 24.688 32 26.388 41.2 18.088L42.7 16.588L42.8 16.488L43.2 16.088L43 15.588C42.9 15.188 42.7 14.688 42.5 14.188L42 12.788L41 13.788C40.9 13.988 40.7 14.088 40.5 14.288C36.1 18.788 29.3 23.388 21.5 20.588C18 19.288 14.4 19.088 11.1 19.988C7.9 20.888 5.1 22.588 2.5 24.988V24.888L1 26.488C1 26.588 0.9 26.588 0.8 26.688L0.5 26.988L0.6 27.388C0.7 27.888 0.9 28.388 1 28.888L1.6 30.488L2.6 29.188C2.7 28.988 2.9 28.888 3 28.688C5.1 26.788 8 24.088 12.1 22.988Z" fill="#9EBAC1"/>
<path d="M2.4 21.187C4.7 18.787 7.3 17.287 10.1 16.487C12.8 15.787 15.7 15.887 18.6 16.987C27.6 20.287 35.4 14.887 38.8 11.987L40.1 10.687L40.6 10.287L40.2 9.68699C39.9 9.38699 39.7 8.98699 39.4 8.58699L38.8 7.78699L38.1 8.48699L37.7 8.88699C33.5 12.887 27 16.987 19.6 14.187C16.1 12.887 12.5 12.687 9.2 13.587C7.1 14.187 5.1 15.187 3.1 16.487L1 18.187L0.5 18.687L0.3 18.887V19.187C0.2 19.887 0.2 20.587 0.1 21.187L0 23.687L1.7 21.887C1.9 21.687 2.1 21.387 2.4 21.187ZM28.7 40.587C28.4 40.487 28.2 40.387 27.9 40.287C24.4 38.987 20.8 38.787 17.5 39.687C16.8 39.887 16.1 40.087 15.4 40.387L13 41.487L12.4 41.787L14.4 42.487L16.2 43.087L16.5 43.187L16.8 43.087C17.1 42.987 17.4 42.787 17.7 42.787C17.9 42.787 18.1 42.687 18.3 42.587C20.7 41.987 23.3 41.987 26.1 42.887C26.4 42.987 26.6 43.087 26.9 43.187L27.4 43.387L27.7 43.287C28.4 43.087 29.2 42.887 29.8 42.587L32.6 41.587L29.7 40.887C29.4 40.787 29 40.687 28.7 40.587ZM44 19.887L42.5 21.387L41.9 21.987C37.8 25.887 31.2 30.087 23.8 27.287C20.3 25.987 16.7 25.787 13.4 26.687C10.3 27.587 7.5 29.187 5 31.587L3.7 32.987L3.3 33.487L3.7 34.087C4 34.487 4.2 34.787 4.4 35.187L5 36.087L5.7 35.187L6.1 34.787C8.5 32.187 11.1 30.587 14.1 29.787C16.8 29.087 19.7 29.187 22.6 30.287C25.1 31.187 27.7 31.487 30.3 31.187C34.9 30.687 39.5 28.087 42.9 25.187C43.1 24.987 43.3 24.887 43.5 24.687L43.8 24.387V24.087C43.8 23.487 43.9 22.787 43.9 22.187L44 19.887Z" fill="#9EBAC1"/>
<path d="M6.0002 10.688C6.6002 10.388 7.3002 10.188 7.9002 9.98801C10.6002 9.28801 13.5002 9.38801 16.4002 10.488C18.3002 11.188 20.2002 11.488 22.3002 11.488C26.5002 11.488 30.7002 9.98801 34.6002 7.08801L36.1002 5.88801L36.6002 5.48801L35.7002 4.78801C35.4002 4.48801 35.0002 4.18801 34.6002 3.98801L34.0002 3.58801L33.5002 3.98801C33.3002 4.08801 33.2002 4.28801 33.0002 4.38801C27.7002 8.38801 22.4002 9.48801 17.4002 7.58801C13.8002 6.28801 10.2002 5.98801 6.60019 7.08801C6.30019 7.18801 6.0002 7.28801 5.6002 7.38801L5.4002 7.48801L5.1002 7.78801C5.1002 7.88801 5.0002 7.88801 4.9002 7.98801C4.5002 8.58801 4.0002 9.08801 3.6002 9.68801L1.7002 12.588L4.8002 10.988C5.3002 10.988 5.7002 10.788 6.0002 10.688ZM14.2002 3.88701L14.5002 3.98701C15.8002 4.48701 17.8002 4.98701 20.3002 4.98701C22.9002 4.98701 25.4002 4.38701 27.9002 3.38701L31.0002 1.88701L28.9002 1.18701C28.3002 0.987012 27.7002 0.787012 27.0002 0.687012H26.7002L26.4002 0.787012C26.1002 0.887012 25.8002 1.08701 25.5002 1.18701C22.5002 2.28701 19.5002 2.48701 16.6002 1.68701L15.7002 1.38701L15.4002 1.28701L15.1002 1.38701C14.5002 1.58701 13.9002 1.78701 13.3002 2.08701L11.0002 3.08701L13.4002 3.78701C13.6002 3.68701 13.9002 3.78701 14.2002 3.88701Z" fill="#9EBAC1"/>
<path d="M61.28 31.9099H56.666L63.696 11.5449H69.244L76.264 31.9089H71.65L66.55 16.1989H66.39L61.28 31.9099ZM60.991 23.9049H71.89V27.2649H60.991V23.9049ZM82.871 11.5449V31.9099H78.636V11.5449H82.871ZM94.388 16.6359V19.8179H85.191V16.6359H94.388ZM87.278 12.9769H91.514V27.2159C91.514 27.6069 91.574 27.9119 91.694 28.1309C91.813 28.3429 91.978 28.4909 92.191 28.5779C92.409 28.6639 92.661 28.7079 92.946 28.7079C93.146 28.7079 93.344 28.6909 93.543 28.6579L94 28.5679L94.666 31.7199C94.454 31.7859 94.156 31.8629 93.772 31.9489C93.3114 32.0512 92.8418 32.1078 92.37 32.1179C91.349 32.1579 90.454 32.0219 89.685 31.7099C88.923 31.3989 88.329 30.9149 87.905 30.2579C87.481 29.6019 87.272 28.7739 87.279 27.7729L87.278 12.9769ZM102.728 30.8049V16.7249H106.288V30.8049H102.728ZM97.468 25.5449V21.9849H111.548V25.5449H97.468ZM126.84 17.4019C126.761 16.5999 126.419 15.9769 125.816 15.5319C125.213 15.0879 124.394 14.8659 123.36 14.8659C122.657 14.8659 122.064 14.9659 121.58 15.1649C121.096 15.3569 120.725 15.6249 120.467 15.9699C120.217 16.3094 120.084 16.7212 120.089 17.1429C120.075 17.5079 120.152 17.8259 120.317 18.0979C120.49 18.3699 120.725 18.6049 121.023 18.8039C121.349 19.0092 121.695 19.1792 122.057 19.3109C122.449 19.4509 122.866 19.5699 123.31 19.6689L125.14 20.1069C126.028 20.3049 126.843 20.5699 127.586 20.9019C128.328 21.2329 128.971 21.6419 129.515 22.1249C130.051 22.5999 130.482 23.1825 130.778 23.8349C131.083 24.4909 131.238 25.2439 131.245 26.0919C131.238 27.3389 130.92 28.4189 130.29 29.3339C129.667 30.2419 128.766 30.9479 127.586 31.4519C126.413 31.9489 124.997 32.1969 123.34 32.1969C121.696 32.1969 120.264 31.9449 119.045 31.4419C117.832 30.9379 116.884 30.1919 116.201 29.2039C115.525 28.2099 115.17 26.9809 115.137 25.5159H119.303C119.35 26.1979 119.545 26.7679 119.89 27.2259C120.241 27.6759 120.709 28.0179 121.292 28.2499C121.882 28.4749 122.548 28.5879 123.29 28.5879C124.02 28.5879 124.653 28.4819 125.19 28.2699C125.733 28.0579 126.154 27.7629 126.452 27.3849C126.748 27.0157 126.906 26.5551 126.9 26.0819C126.9 25.6249 126.764 25.2409 126.492 24.9289C126.227 24.6169 125.836 24.3519 125.319 24.1339C124.71 23.8836 124.082 23.6839 123.44 23.5369L121.222 22.9799C119.505 22.5619 118.15 21.9099 117.155 21.0209C116.161 20.1329 115.667 18.9359 115.674 17.4309C115.667 16.1989 115.995 15.1209 116.658 14.2009C117.328 13.2789 118.246 12.5599 119.413 12.0429C120.579 11.5249 121.905 11.2669 123.39 11.2669C124.901 11.2669 126.22 11.5249 127.347 12.0429C128.481 12.5599 129.362 13.2789 129.992 14.1999C130.622 15.1219 130.947 16.1889 130.967 17.4019H126.84ZM138.297 23.0799V31.9099H134.061V11.5439H138.178V19.3299H138.357C138.702 18.4279 139.258 17.7229 140.027 17.2119C140.796 16.6949 141.761 16.4359 142.921 16.4359C143.981 16.4359 144.906 16.6679 145.695 17.1329C146.49 17.5899 147.107 18.2489 147.544 19.1109C147.988 19.9659 148.207 20.9909 148.201 22.1839V31.9079H143.965V22.9399C143.971 21.9989 143.733 21.2669 143.249 20.7429C142.772 20.2189 142.102 19.9569 141.24 19.9569C140.664 19.9569 140.153 20.0799 139.709 20.3249C139.267 20.5748 138.908 20.948 138.675 21.3989C138.43 21.8629 138.304 22.4239 138.297 23.0799ZM151.534 31.9099V16.6349H155.77V31.9099H151.534ZM153.662 14.6679C153.032 14.6679 152.492 14.4579 152.041 14.0409C151.597 13.6169 151.375 13.1099 151.375 12.5199C151.375 11.9369 151.597 11.4359 152.041 11.0179C152.476 10.6 153.059 10.3713 153.662 10.3819C154.292 10.3819 154.829 10.5939 155.273 11.0179C155.723 11.4359 155.949 11.9359 155.949 12.5199C155.949 13.1099 155.723 13.6169 155.273 14.0409C154.84 14.4546 154.261 14.68 153.662 14.6679ZM168.89 16.6359V19.8179H157.95V16.6359H168.89ZM160.108 31.9089V15.5329C160.108 14.4259 160.323 13.5079 160.754 12.7779C161.174 12.065 161.797 11.4938 162.544 11.1379C163.299 10.7729 164.158 10.5909 165.119 10.5909C165.769 10.5909 166.362 10.6409 166.899 10.7399C167.442 10.8399 167.847 10.9289 168.112 11.0079L167.356 14.1899C167.154 14.128 166.948 14.0783 166.74 14.0409C166.498 13.994 166.251 13.9706 166.004 13.9709C165.381 13.9709 164.947 14.1169 164.701 14.4089C164.456 14.6939 164.333 15.0949 164.333 15.6119V31.9099L160.108 31.9089ZM178.087 16.6359V19.8179H168.89V16.6359H178.087ZM170.978 12.9769H175.214V27.2159C175.214 27.6069 175.273 27.9119 175.393 28.1309C175.502 28.3332 175.677 28.4913 175.89 28.5779C176.109 28.6639 176.361 28.7079 176.646 28.7079C176.844 28.7079 177.043 28.6909 177.242 28.6579C177.441 28.6179 177.593 28.5879 177.7 28.5679L178.366 31.7199C178.154 31.7859 177.855 31.8629 177.471 31.9489C177.01 32.0512 176.541 32.1078 176.069 32.1179C175.048 32.1579 174.153 32.0219 173.384 31.7099C172.622 31.3989 172.029 30.9149 171.604 30.2579C171.18 29.6019 170.971 28.7739 170.978 27.7729V12.9769Z" fill="#9EBAC1"/>
</g>
<defs>
<clipPath id="clip0_2151_105">
<rect width="179" height="44" fill="white"/>
</clipPath>
</defs>
</svg>
