<svg width="165" height="44" viewBox="0 0 165 44" fill="none" xmlns="http://www.w3.org/2000/svg">
<g clip-path="url(#clip0_2151_101)">
<path fill-rule="evenodd" clip-rule="evenodd" d="M12.835 31.165C5.53 29.813 0 23.41 0 15.715C0 7.034 7.036 0 15.714 0C23.41 0 29.813 5.531 31.165 12.835C30.2151 12.6591 29.2511 12.5708 28.285 12.571C19.607 12.571 12.571 19.607 12.571 28.286C12.571 29.269 12.661 30.231 12.835 31.165Z" fill="#9EBAC1"/>
<path opacity="0.6" fill-rule="evenodd" clip-rule="evenodd" d="M15.714 31.428C24.394 31.428 31.429 24.393 31.429 15.714C31.429 14.731 31.339 13.768 31.165 12.834C38.47 14.188 44 20.59 44 28.287C44 36.964 36.965 44 28.286 44C20.591 44 14.187 38.469 12.835 31.165C13.7849 31.3409 14.7489 31.4293 15.715 31.429L15.714 31.428Z" fill="#9EBAC1"/>
<path d="M67.5495 32.2401C72.9195 32.2401 76.7895 29.2101 77.1795 24.7101H72.6795C72.3195 26.8701 70.2495 28.3401 67.5495 28.3401C64.1595 28.3401 61.5495 26.0001 61.5495 21.5001C61.5495 17.0001 64.1595 14.6301 67.5495 14.6301C70.1895 14.6301 72.2595 16.1001 72.5595 18.2901H77.2695C76.6995 13.7601 72.8295 10.7601 67.5495 10.7601C61.9395 10.7601 57.0195 14.4201 57.0195 21.5001C57.0195 28.5801 61.8495 32.2401 67.5495 32.2401ZM85.5305 16.6401C81.3905 16.6401 78.9305 19.0701 78.7505 22.1001H82.4705C82.5305 20.8401 83.4605 19.7001 85.2905 19.7001C87.0005 19.7001 87.9905 20.5701 87.9905 21.8301C87.9905 22.4601 87.6005 22.9401 86.8505 22.9401H84.3005C81.0005 22.9401 78.7805 24.7401 78.7805 27.7101C78.7805 30.2901 80.7905 32.2401 83.7305 32.2401C85.8005 32.2401 87.4805 31.3101 87.9905 29.9001V32.0001H92.1305V22.2801C92.1305 18.8601 89.3405 16.6401 85.5305 16.6401ZM84.7805 29.2101C83.6105 29.2101 82.7705 28.5201 82.7705 27.5301C82.7705 26.3601 83.6705 25.5801 84.9305 25.5801H87.9905V25.7901C87.9905 27.7101 86.8205 29.2101 84.7805 29.2101ZM94.9335 38.1201H99.1035V30.6501C99.9135 31.6701 101.384 32.2401 103.094 32.2401C107.444 32.2401 110.384 29.1501 110.384 24.4401C110.384 19.7301 107.684 16.6401 103.454 16.6401C101.504 16.6401 100.004 17.3601 99.1035 18.5301V16.8801H94.9335V38.1201ZM102.584 28.6401C100.334 28.6401 98.8635 26.9601 98.8635 24.4401C98.8635 21.8901 100.334 20.2101 102.584 20.2101C104.774 20.2101 106.274 21.8901 106.274 24.4401C106.274 26.9601 104.774 28.6401 102.584 28.6401ZM117.726 32.2401C121.266 32.2401 123.606 30.3501 123.606 27.4701C123.606 20.6301 115.326 24.1401 115.326 21.0501C115.326 20.0901 116.136 19.5801 117.306 19.5801C118.446 19.5801 119.616 20.2701 119.796 21.5601H123.426C123.276 18.5901 120.816 16.6401 117.186 16.6401C114.096 16.6401 111.786 18.5301 111.786 21.2001C111.786 27.5601 119.916 24.5301 119.916 27.6201C119.916 28.4601 119.016 29.0901 117.726 29.0901C116.166 29.0901 115.116 28.2501 114.966 26.9001H111.366C111.516 30.1701 114.036 32.2401 117.726 32.2401ZM140.076 16.8801H135.876V25.1601C135.876 27.0801 134.586 28.5201 132.756 28.5201C131.046 28.5201 129.846 27.2001 129.846 25.3701V16.8801H125.676V26.3001C125.676 29.7501 127.896 32.2401 131.286 32.2401C133.356 32.2401 135.036 31.3401 135.876 29.9001V32.0001H140.076V16.8801ZM143.077 32.0001H147.247V10.3101H143.077V32.0001ZM160.352 26.8701C160.022 28.1601 158.912 28.8201 157.232 28.8201C155.132 28.8201 153.782 27.5001 153.482 25.3701H164.342C164.372 25.0401 164.402 24.5901 164.402 24.0201C164.402 20.5701 162.272 16.6401 156.932 16.6401C151.802 16.6401 149.462 20.5701 149.462 24.4101C149.462 28.2201 152.102 32.2401 157.232 32.2401C160.952 32.2401 163.832 30.1401 164.432 26.8701H160.352ZM156.932 19.7001C158.942 19.7001 160.112 21.0501 160.232 22.7301H153.542C153.902 20.6301 155.042 19.7001 156.932 19.7001Z" fill="#9EBAC1"/>
</g>
<defs>
<clipPath id="clip0_2151_101">
<rect width="165" height="44" fill="white"/>
</clipPath>
</defs>
</svg>
