<svg width="178" height="40" viewBox="0 0 178 40" fill="none" xmlns="http://www.w3.org/2000/svg">
<g clip-path="url(#clip0_2151_114)">
<path fill-rule="evenodd" clip-rule="evenodd" d="M20 34C27.732 34 34 27.732 34 20C34 12.268 27.732 6 20 6C12.268 6 6 12.268 6 20C6 27.732 12.268 34 20 34ZM20 40C31.046 40 40 31.046 40 20C40 8.954 31.046 0 20 0C8.954 0 0 8.954 0 20C0 31.046 8.954 40 20 40Z" fill="#9EBAC1"/>
<path d="M66.1836 16.4129C66.1879 17.4415 65.9276 18.454 65.4276 19.3529C64.9426 20.2679 64.1676 21.0049 63.1036 21.5649C62.0586 22.1249 60.7336 22.4049 59.1276 22.4049H55.8516V29.9089H51.9316V10.3649H59.1276C60.6396 10.3649 61.9276 10.6259 62.9916 11.1489C64.0556 11.6719 64.8486 12.3909 65.3716 13.3049C65.9126 14.2199 66.1836 15.2549 66.1836 16.4129ZM58.9596 19.2409C60.0426 19.2409 60.8446 18.9989 61.3676 18.5129C61.8906 18.0089 62.1516 17.3089 62.1516 16.4129C62.1516 14.5089 61.0876 13.5569 58.9596 13.5569H55.8516V19.2409H58.9596ZM74.7346 30.1609C73.2416 30.1609 71.8976 29.8339 70.7026 29.1809C69.5167 28.5177 68.5378 27.5388 67.8746 26.3529C67.2026 25.1399 66.8666 23.7399 66.8666 22.1529C66.8666 20.5669 67.2126 19.1669 67.9026 17.9529C68.5827 16.7679 69.582 15.7977 70.7866 15.1529C71.9996 14.4809 73.3536 14.1449 74.8466 14.1449C76.3406 14.1449 77.6936 14.4809 78.9066 15.1529C80.107 15.7936 81.0983 16.7654 81.7626 17.9529C82.4726 19.1659 82.8266 20.5669 82.8266 22.1529C82.8266 23.7399 82.4626 25.1399 81.7346 26.3529C81.0449 27.5473 80.0367 28.5264 78.8226 29.1809C77.6096 29.8349 76.2466 30.1609 74.7346 30.1609ZM74.7346 26.7449C75.4446 26.7449 76.1066 26.5769 76.7226 26.2409C77.3576 25.8869 77.8616 25.3639 78.2346 24.6729C78.6086 23.9829 78.7946 23.1429 78.7946 22.1529C78.7946 20.6789 78.4026 19.5489 77.6186 18.7649C76.8536 17.9619 75.9106 17.5609 74.7906 17.5609C73.6706 17.5609 72.7276 17.9619 71.9626 18.7649C71.2166 19.5489 70.8426 20.6779 70.8426 22.1529C70.8426 23.6279 71.2066 24.7669 71.9346 25.5689C72.6816 26.3529 73.6146 26.7449 74.7346 26.7449ZM88.5026 9.18994V29.9099H84.5826V9.18994H88.5026ZM106.096 14.3969L96.4916 37.2449H92.3196L95.6796 29.5169L89.4636 14.3969H93.8596L97.8636 25.2329L101.924 14.3969H106.096ZM126.353 14.1729C128.257 14.1729 129.787 14.7609 130.945 15.9369C132.121 17.0939 132.709 18.7179 132.709 20.8089V29.9089H128.789V21.3409C128.789 20.1279 128.481 19.2039 127.865 18.5689C127.249 17.9159 126.409 17.5889 125.345 17.5889C124.281 17.5889 123.431 17.9159 122.797 18.5689C122.181 19.2039 121.873 20.1279 121.873 21.3409V29.9089H117.953V21.3409C117.953 20.1279 117.645 19.2039 117.029 18.5689C116.413 17.9159 115.573 17.5889 114.509 17.5889C113.426 17.5889 112.567 17.9159 111.933 18.5689C111.317 19.2039 111.009 20.1279 111.009 21.3409V29.9089H107.089V14.3969H111.009V16.2729C111.521 15.613 112.184 15.085 112.941 14.7329C113.766 14.3546 114.665 14.1634 115.573 14.1729C116.786 14.1729 117.869 14.4349 118.821 14.9569C119.76 15.448 120.53 16.2086 121.033 17.1409C121.537 16.2449 122.265 15.5269 123.217 14.9849C124.174 14.447 125.255 14.1672 126.353 14.1729ZM134.301 22.0969C134.301 20.5289 134.609 19.1379 135.225 17.9249C135.859 16.7119 136.709 15.7789 137.773 15.1249C138.855 14.4719 140.059 14.1449 141.385 14.1449C142.542 14.1449 143.55 14.3779 144.409 14.8449C145.286 15.3119 145.986 15.8999 146.509 16.6089V14.3969H150.457V29.9099H146.509V27.6419C146.005 28.3699 145.305 28.9769 144.409 29.4619C143.531 29.9289 142.514 30.1619 141.357 30.1619C140.091 30.1734 138.848 29.8238 137.773 29.1539C136.709 28.4819 135.859 27.5399 135.225 26.3259C134.609 25.0939 134.301 23.6839 134.301 22.0969ZM146.509 22.1529C146.509 21.2009 146.322 20.3889 145.949 19.7169C145.575 19.0269 145.071 18.5039 144.437 18.1489C143.819 17.7802 143.113 17.5867 142.393 17.5889C141.665 17.5889 140.993 17.7669 140.377 18.1209C139.761 18.4759 139.257 18.9989 138.865 19.6889C138.491 20.3609 138.305 21.1639 138.305 22.0969C138.305 23.0299 138.491 23.8519 138.865 24.5609C139.257 25.2509 139.761 25.7839 140.377 26.1569C140.986 26.5232 141.683 26.7168 142.393 26.7169C143.109 26.7202 143.814 26.5368 144.437 26.1849C145.074 25.8088 145.596 25.2668 145.949 24.6169C146.322 23.9269 146.509 23.1049 146.509 22.1529ZM157.729 17.6169V25.1209C157.729 25.6439 157.85 26.0259 158.093 26.2689C158.354 26.4929 158.784 26.6049 159.381 26.6049H161.201V29.9089H158.737C155.433 29.9089 153.781 28.3039 153.781 25.0929V17.6169H151.933V14.3969H153.781V10.5609H157.729V14.3969H161.201V17.6169H157.729ZM171.637 14.1729C172.813 14.1729 173.858 14.4349 174.773 14.9569C175.687 15.4609 176.397 16.2169 176.901 17.2249C177.423 18.2149 177.685 19.4089 177.685 20.8089V29.9089H173.765V21.3409C173.765 20.1089 173.457 19.1659 172.841 18.5129C172.225 17.8409 171.385 17.5049 170.321 17.5049C169.238 17.5049 168.379 17.8409 167.745 18.5129C167.129 19.1659 166.821 20.1089 166.821 21.3409V29.9089H162.901V9.18994H166.821V16.3299C167.325 15.6579 167.997 15.1349 168.837 14.7619C169.677 14.3699 170.61 14.1729 171.637 14.1729Z" fill="#9EBAC1"/>
</g>
<defs>
<clipPath id="clip0_2151_114">
<rect width="178" height="40" fill="white"/>
</clipPath>
</defs>
</svg>
