<svg width="148" height="39" viewBox="0 0 148 39" fill="none" xmlns="http://www.w3.org/2000/svg">
<path d="M18.79 20.71V20.21H5.29V19.269C11.669 17.689 16.69 12.669 18.269 6.289H19.211V19.789H32.711V20.731C29.5733 21.5132 26.7077 23.1345 24.4211 25.4211C22.1345 27.7077 20.5132 30.5733 19.731 33.711H18.789V20.711L18.79 20.71ZM1 15H0.5V25H14V38.5H24V38C24 30.82 29.82 25 37 25H37.5V15H24V1.5H14V2C14 9.18 8.18 15 1 15Z" fill="#C1FFB4" stroke="#C1FFB4"/>
<path d="M50.616 8.96002C52.472 8.96002 53.816 9.00302 54.648 9.08802C55.48 9.15202 56.078 9.31202 56.44 9.56802C56.824 9.82402 57.016 10.24 57.016 10.816C57.016 11.286 56.92 11.904 56.728 12.672L53.752 25.472C53.56 26.389 53.464 26.944 53.464 27.136C53.464 27.477 53.571 27.691 53.784 27.776C54.019 27.861 54.477 27.904 55.16 27.904H56.312L55.448 32H51.736C50.371 32 49.4 31.819 48.824 31.456C48.248 31.093 47.96 30.421 47.96 29.44C47.96 28.843 48.056 28.117 48.248 27.264L51.16 14.784C51.31 14.144 51.384 13.749 51.384 13.6C51.384 13.344 51.277 13.195 51.064 13.152C50.872 13.088 50.434 13.056 49.752 13.056L50.616 8.96002ZM56.731 23.552C57.009 21.8933 57.6782 20.3247 58.683 18.976C59.7074 17.6103 61.0468 16.5125 62.587 15.776C64.187 14.986 65.957 14.592 67.899 14.592C69.051 14.592 70.096 14.784 71.035 15.168C71.995 15.531 72.752 16.043 73.307 16.704C73.883 17.344 74.171 18.08 74.171 18.912C74.171 19.062 74.149 19.264 74.107 19.52C73.765 21.461 72.443 22.901 70.139 23.84C67.835 24.757 64.912 25.216 61.371 25.216C61.413 27.349 62.565 28.416 64.827 28.416C65.659 28.416 66.437 28.192 67.163 27.744C67.909 27.296 68.421 26.752 68.699 26.112H73.691C73.243 27.307 72.539 28.395 71.579 29.376C70.6247 30.3468 69.4956 31.1286 68.251 31.68C66.9895 32.2308 65.6275 32.5141 64.251 32.512C61.669 32.512 59.739 31.882 58.459 30.624C57.179 29.365 56.539 27.691 56.539 25.6C56.539 24.939 56.603 24.256 56.731 23.552ZM61.851 22.144C64.155 22.144 65.872 21.984 67.003 21.664C68.133 21.323 68.773 20.704 68.923 19.808C68.987 19.381 68.837 19.029 68.475 18.752C68.112 18.453 67.632 18.304 67.035 18.304C65.669 18.304 64.549 18.688 63.675 19.456C62.8402 20.1752 62.2109 21.1027 61.851 22.144ZM75.148 15.104H80.908L82.316 19.296C82.422 19.616 82.476 19.904 82.476 20.16C82.476 20.267 82.454 20.427 82.412 20.64L82.38 20.864C82.38 21.163 82.518 21.312 82.796 21.312C83.137 21.312 83.35 21.088 83.436 20.64C83.564 20.17 83.788 19.723 84.108 19.296L87.308 15.104H93.068L85.868 23.168L89.996 32H84.236L82.476 27.008C82.3738 26.7535 82.3195 26.4823 82.316 26.208C82.316 26.058 82.337 25.878 82.38 25.664L82.412 25.408C82.412 25.131 82.273 24.992 81.996 24.992C81.804 24.992 81.666 25.056 81.58 25.184C81.4763 25.3288 81.4003 25.4915 81.356 25.664C81.164 26.24 80.94 26.688 80.684 27.008L76.812 32H71.052L78.956 23.168L75.148 15.104ZM91.012 23.552C91.311 21.845 91.962 20.32 92.964 18.976C93.9884 17.6103 95.3278 16.5125 96.868 15.776C98.468 14.986 100.239 14.592 102.18 14.592C103.332 14.592 104.377 14.784 105.316 15.168C106.276 15.531 107.033 16.043 107.588 16.704C108.164 17.344 108.452 18.08 108.452 18.912C108.452 19.062 108.431 19.264 108.388 19.52C108.047 21.461 106.724 22.901 104.42 23.84C102.116 24.757 99.193 25.216 95.652 25.216C95.695 27.349 96.847 28.416 99.108 28.416C99.94 28.416 100.719 28.192 101.444 27.744C102.191 27.296 102.703 26.752 102.98 26.112H107.972C107.524 27.307 106.82 28.395 105.86 29.376C104.906 30.3468 103.777 31.1285 102.532 31.68C101.27 32.2309 99.9085 32.5142 98.532 32.512C95.951 32.512 94.02 31.882 92.74 30.624C91.46 29.365 90.82 27.691 90.82 25.6C90.82 24.939 90.884 24.256 91.012 23.552ZM96.132 22.144C98.436 22.144 100.153 21.984 101.284 21.664C102.415 21.323 103.055 20.704 103.204 19.808C103.268 19.381 103.119 19.029 102.756 18.752C102.393 18.453 101.913 18.304 101.316 18.304C99.951 18.304 98.831 18.688 97.956 19.456C97.1213 20.1753 96.492 21.1027 96.132 22.144ZM116.354 15.104L115.746 18.016C115.64 18.528 115.405 19.083 115.042 19.68C114.68 20.277 114.466 20.64 114.402 20.768C114.343 20.8763 114.31 20.9968 114.306 21.12C114.306 21.27 114.37 21.365 114.498 21.408C114.572 21.4362 114.652 21.4451 114.73 21.4339C114.809 21.4227 114.883 21.3918 114.946 21.344C115.015 21.2824 115.07 21.2058 115.106 21.12C116.088 19.328 117.314 17.792 118.786 16.512C120.28 15.232 121.837 14.592 123.458 14.592C124.653 14.592 125.496 14.848 125.986 15.36C126.498 15.85 126.754 16.64 126.754 17.728C126.754 18.688 126.541 20.203 126.114 22.272L124.034 32H118.914L120.738 23.424C121.101 21.803 121.282 20.672 121.282 20.032C121.282 19.605 121.197 19.296 121.026 19.104C120.877 18.912 120.621 18.816 120.258 18.816C119.661 18.816 118.861 19.446 117.858 20.704C116.856 21.941 115.906 23.445 115.01 25.216C114.114 26.966 113.506 28.555 113.186 29.984L112.77 32H107.65L111.234 15.104H116.354ZM127.26 23.936C127.616 22.2659 128.289 20.6798 129.244 19.264C130.204 17.834 131.377 16.704 132.764 15.872C134.15 15.019 135.622 14.592 137.18 14.592C138.118 14.592 138.865 14.795 139.42 15.2C140.015 15.6266 140.516 16.1713 140.892 16.8C140.998 16.95 141.094 17.056 141.18 17.12C141.265 17.184 141.382 17.184 141.532 17.12C141.724 17.013 141.82 16.875 141.82 16.704C141.82 16.64 141.798 16.544 141.756 16.416C141.542 15.946 141.436 15.595 141.436 15.36C141.436 15.275 141.457 15.104 141.5 14.848L142.748 8.96002H147.868L144.668 24.064C144.39 25.2947 144.145 26.5325 143.932 27.776C143.782 28.672 143.708 29.44 143.708 30.08C143.708 30.741 143.804 31.381 143.996 32H138.812C138.715 31.6451 138.662 31.2798 138.652 30.912C138.652 30.357 138.748 29.845 138.94 29.376C139.132 28.886 139.398 28.363 139.74 27.808C139.868 27.6226 139.985 27.4303 140.092 27.232C140.147 27.1339 140.18 27.0245 140.188 26.912C140.188 26.784 140.124 26.688 139.996 26.624C139.974 26.603 139.921 26.592 139.836 26.592C139.733 26.5974 139.634 26.6306 139.548 26.688C139.508 26.7057 139.473 26.7322 139.446 26.7655C139.418 26.7988 139.398 26.8379 139.388 26.88C137.318 30.635 134.865 32.512 132.028 32.512C130.556 32.512 129.35 31.957 128.412 30.848C127.473 29.738 127.004 28.256 127.004 26.4C127.004 25.525 127.089 24.704 127.26 23.936ZM132.348 24.128C132.241 24.704 132.188 25.173 132.188 25.536C132.188 26.389 132.38 27.04 132.764 27.488C133.169 27.936 133.692 28.16 134.332 28.16C135.142 28.16 135.942 27.85 136.732 27.232C137.521 26.613 138.225 25.739 138.844 24.608C139.462 23.456 139.932 22.144 140.252 20.672C139.825 20.032 139.398 19.584 138.972 19.328C138.545 19.072 137.99 18.944 137.308 18.944C136.07 18.944 135.014 19.414 134.14 20.352C133.286 21.269 132.689 22.528 132.348 24.128Z" fill="white"/>
</svg>
