<svg width="24" height="24" viewBox="0 0 24 24" fill="none" xmlns="http://www.w3.org/2000/svg">
<path d="M12 8.684L3 3V9.632L12 15.316V8.684Z" fill="#C1FFB4"/>
<path d="M12 8.684L3 3V9.632L12 15.316V8.684Z" fill="#C1FFB4"/>
<path d="M12 15.316L3 21V14.37L12 8.68604V15.317V15.316Z" fill="#C1FFB4"/>
<path d="M12 15.316L3 21V14.37L12 8.68604V15.317V15.316Z" fill="#C1FFB4"/>
<path d="M12 8.684L21 3V9.632L12 15.316V8.684Z" fill="#C1FFB4"/>
<path d="M12 8.684L21 3V9.632L12 15.316V8.684Z" fill="#C1FFB4"/>
<path d="M12 15.316L21 21V14.37L12 8.68604V15.317V15.316Z" fill="#C1FFB4"/>
<path d="M12 15.316L21 21V14.37L12 8.68604V15.317V15.316Z" fill="#C1FFB4"/>
</svg>
